<?xml version="1.0" encoding="UTF-8"?>
<svg width="80" height="80" viewBox="0 0 80 80" fill="none" xmlns="http://www.w3.org/2000/svg">
  <circle cx="40" cy="40" r="40" fill="#E8F0FE"/>
  <path d="M40 20C34.5 20 30 24.5 25 24.5C20 24.5 15 20 15 20V50C15 50 20 54.5 25 54.5C30 54.5 34.5 50 40 50C45.5 50 50 54.5 55 54.5C60 54.5 65 50 65 50V20C65 20 60 24.5 55 24.5C50 24.5 45.5 20 40 20Z" stroke="#1a73e8" stroke-width="3" stroke-linecap="round" stroke-linejoin="round"/>
  <path d="M15 50V60" stroke="#1a73e8" stroke-width="3" stroke-linecap="round" stroke-linejoin="round"/>
  <path d="M65 50V60" stroke="#1a73e8" stroke-width="3" stroke-linecap="round" stroke-linejoin="round"/>
  <path d="M40 20V50" stroke="#1a73e8" stroke-width="3" stroke-linecap="round" stroke-linejoin="round"/>
</svg>
