<?xml version="1.0" encoding="UTF-8"?>
<svg width="80" height="80" viewBox="0 0 80 80" fill="none" xmlns="http://www.w3.org/2000/svg">
  <circle cx="40" cy="40" r="40" fill="#E8F0FE"/>
  <path d="M40 20C31.7157 20 25 26.7157 25 35C25 43.2843 31.7157 50 40 50C48.2843 50 55 43.2843 55 35C55 26.7157 48.2843 20 40 20Z" stroke="#1a73e8" stroke-width="3" stroke-linecap="round" stroke-linejoin="round"/>
  <path d="M30 60C30 54.4772 34.4772 50 40 50C45.5228 50 50 54.4772 50 60" stroke="#1a73e8" stroke-width="3" stroke-linecap="round" stroke-linejoin="round"/>
  <path d="M40 35C42.7614 35 45 32.7614 45 30C45 27.2386 42.7614 25 40 25C37.2386 25 35 27.2386 35 30C35 32.7614 37.2386 35 40 35Z" stroke="#1a73e8" stroke-width="3" stroke-linecap="round" stroke-linejoin="round"/>
  <path d="M30 40L35 35" stroke="#1a73e8" stroke-width="3" stroke-linecap="round" stroke-linejoin="round"/>
  <path d="M50 40L45 35" stroke="#1a73e8" stroke-width="3" stroke-linecap="round" stroke-linejoin="round"/>
</svg>
