<?xml version="1.0" encoding="UTF-8"?>
<svg width="80" height="80" viewBox="0 0 80 80" fill="none" xmlns="http://www.w3.org/2000/svg">
  <circle cx="40" cy="40" r="40" fill="#E8F0FE"/>
  <path d="M30 35C32.7614 35 35 32.7614 35 30C35 27.2386 32.7614 25 30 25C27.2386 25 25 27.2386 25 30C25 32.7614 27.2386 35 30 35Z" stroke="#1a73e8" stroke-width="3" stroke-linecap="round" stroke-linejoin="round"/>
  <path d="M50 35C52.7614 35 55 32.7614 55 30C55 27.2386 52.7614 25 50 25C47.2386 25 45 27.2386 45 30C45 32.7614 47.2386 35 50 35Z" stroke="#1a73e8" stroke-width="3" stroke-linecap="round" stroke-linejoin="round"/>
  <path d="M30 35V45C30 50.5228 34.4772 55 40 55C45.5228 55 50 50.5228 50 45V35" stroke="#1a73e8" stroke-width="3" stroke-linecap="round" stroke-linejoin="round"/>
  <path d="M40 45V55" stroke="#1a73e8" stroke-width="3" stroke-linecap="round" stroke-linejoin="round"/>
  <path d="M30 45H50" stroke="#1a73e8" stroke-width="3" stroke-linecap="round" stroke-linejoin="round"/>
</svg>
